<?xml version="1.0" encoding="utf-8"?>
<!-- Generator: Adobe Illustrator 25.1.0, SVG Export Plug-In . SVG Version: 6.00 Build 0)  -->
<svg version="1.1" id="レイヤー_1" xmlns="http://www.w3.org/2000/svg" xmlns:xlink="http://www.w3.org/1999/xlink" x="0px"
	 y="0px" viewBox="0 0 236 124" style="enable-background:new 0 0 236 124;" xml:space="preserve">
<style type="text/css">
	.st0{fill:#FFFFFF;}
	.st1{fill:#2F2F2F;}
	.st2{enable-background:new    ;}
	.st3{fill:none;stroke:#2F2F2F;stroke-width:3;stroke-linecap:round;}
</style>
<g id="グループ_65" transform="translate(-69.5 -5072)">
	<g id="グループ_64" transform="translate(-0.5)">
		<g id="グループ_62" transform="translate(0 11)">
			<g id="パス_65" transform="translate(133 5061)">
				<path class="st0" d="M100,121H10c-3.9,0-7-3.1-7-7V37.8L36.2,3H100c3.9,0,7,3.1,7,7v104C107,117.9,103.9,121,100,121z"/>
				<path class="st1" d="M37.5,6L6,39v75c0,2.2,1.8,4,4,4h90c2.2,0,4-1.8,4-4V10c0-2.2-1.8-4-4-4H37.5 M35,0h65c5.5,0,10,4.5,10,10
					v104c0,5.5-4.5,10-10,10H10c-5.5,0-10-4.5-10-10V36.6L35,0z"/>
			</g>
			<g class="st2">
				<path class="st1" d="M151.3,5142.7c0.2-1.4,0.3-2.8,0.3-4.8V5119c0-1.8-0.1-3.1-0.3-4.8c1.6,0.1,2.7,0.1,4.8,0.1h7.5
					c3.5,0,6.1,0.9,7.9,2.6c1.5,1.5,2.3,3.7,2.3,6.3c0,2.8-0.8,5.1-2.5,6.8c-1.8,1.8-4.4,2.7-7.8,2.7h-6.1v5.2c0,2,0.1,3.5,0.3,4.9
					H151.3z M163.3,5127.7c2.8,0,4.4-1.6,4.4-4.3c0-1.3-0.3-2.3-1-3c-0.7-0.8-1.8-1.2-3.4-1.2h-6v8.5H163.3z"/>
				<path class="st1" d="M177.4,5119c0-2.2-0.1-3.3-0.3-4.8c1.4,0.1,2.3,0.1,4.8,0.1h6.8c4.3,0,7.5,1,9.8,3.3
					c2.6,2.5,3.9,6.1,3.9,10.7c0,4.8-1.4,8.6-4.1,11.2c-2.3,2.2-5.4,3.3-9.5,3.3h-6.9c-2.4,0-3.3,0-4.8,0.1c0.2-1.5,0.3-2.6,0.3-4.8
					V5119z M188.3,5137.7c2.6,0,4.3-0.6,5.7-2c1.6-1.6,2.4-4.2,2.4-7.3c0-3.2-0.7-5.5-2.2-7c-1.3-1.4-3.1-2-5.9-2h-5.1v18.3H188.3z"
					/>
				<path class="st1" d="M212.2,5137.5c0,2.6,0.1,3.9,0.3,5.3h-6.4c0.2-1.3,0.3-2.8,0.3-5.2V5119c0-2.1-0.1-3.2-0.3-4.8
					c1.4,0.1,2.3,0.1,4.8,0.1h10.2c2.3,0,3.5-0.1,5-0.2v5.6c-1.3-0.2-2.7-0.2-5-0.2h-8.9v6.7h7.2c2.3,0,3.6-0.1,5-0.2v5.5
					c-1.3-0.2-2.8-0.2-5-0.2h-7.2V5137.5z"/>
			</g>
			<g id="パス_64" transform="translate(133 5061)">
				<path class="st0" d="M28,35H7.4c3-3.4,7.2-8.1,11.6-12.9c4.8-5.2,8.9-9.5,12.1-12.7c1.5-1.5,2.8-2.7,3.9-3.7V28
					C35,31.9,31.9,35,28,35z"/>
				<path class="st1" d="M32,12.8c-4.9,5-11.4,12-17.9,19.2H28c2.2,0,4-1.8,4-4V12.8 M37.6,0.2c0.3,0,0.4,0.2,0.4,0.5V28
					c0,5.5-4.5,10-10,10H0.8C0.8,38,33.6,0.2,37.6,0.2z"/>
			</g>
		</g>
		<line id="線_2" class="st3" x1="111.4" y1="5114.5" x2="83.6" y2="5098.5"/>
		<line id="線_3" class="st3" x1="111.4" y1="5169.5" x2="83.6" y2="5185.5"/>
		<line id="線_4" class="st3" x1="103.5" y1="5142.5" x2="71.5" y2="5142.5"/>
		<g id="グループ_63" transform="translate(569.144 10284) rotate(180)">
			<line id="線_6" class="st3" x1="304.5" y1="5114.5" x2="276.8" y2="5098.5"/>
			<line id="線_7" class="st3" x1="304.5" y1="5169.5" x2="276.8" y2="5185.5"/>
			<line id="線_5" class="st3" x1="296.6" y1="5142.5" x2="264.6" y2="5142.5"/>
		</g>
	</g>
</g>
</svg>
